<?xml version="1.0" encoding="utf-8"?>
<!-- Generator: Adobe Illustrator 19.2.1, SVG Export Plug-In . SVG Version: 6.00 Build 0)  -->
<svg version="1.1" id="Layer_1" xmlns="http://www.w3.org/2000/svg" xmlns:xlink="http://www.w3.org/1999/xlink" x="0px" y="0px"
	 viewBox="0 0 16 16" style="enable-background:new 0 0 16 16;" xml:space="preserve">
<style type="text/css">
	.st0{fill:#325FAC;}
	.st1{fill:none;stroke:#F7F7F7;stroke-width:0.3547;stroke-linecap:round;stroke-linejoin:round;stroke-miterlimit:10;}
	.st2{fill:none;stroke:#F7F7F7;stroke-width:0.1871;stroke-linecap:round;stroke-linejoin:round;stroke-miterlimit:10;}
	.st3{fill:none;stroke:#F7F7F7;stroke-width:0.3742;stroke-linecap:round;stroke-linejoin:round;stroke-miterlimit:10;}
	.st4{fill:none;stroke:#F7F7F7;stroke-width:0.3303;stroke-linecap:round;stroke-linejoin:round;stroke-miterlimit:10;}
	.st5{fill:none;stroke:#F7F7F7;stroke-width:0.3301;stroke-linecap:round;stroke-linejoin:round;stroke-miterlimit:10;}
	.st6{fill:#285AA9;}
	.st7{fill:#F7F7F7;}
	.st8{fill:#3360AC;}
	.st9{fill:none;stroke:#F7F7F7;stroke-width:0.25;stroke-miterlimit:10;}
	.st10{fill:#F7F7F7;stroke:#3360AC;stroke-width:0.5;stroke-linejoin:round;stroke-miterlimit:10;}
	.st11{fill:#FFFFFF;}
</style>
<path class="st6" d="M14,16H2c-1.1,0-2-0.9-2-2V2c0-1.1,0.9-2,2-2h12c1.1,0,2,0.9,2,2v12C16,15.1,15.1,16,14,16z"/>
<path class="st11" d="M14.2,7.1c-0.2-0.4-0.8-0.7-1.1-0.8c-0.1,0-0.4-0.1-0.5-0.1V1.9c0-0.7-0.6-1.5-1.4-1.5H4.9
	c-0.8,0-1.4,0.7-1.4,1.5v4.4c0,0,0,0,0.1,0c-0.7,0-1.4,0.2-1.7,0.9c-0.4,1-1,3.5-1.5,5c-0.2,0.5,0.4,1.4,1,1.5
	c0.4,0.1,0.7,0.1,0.9,0.1c0.7,0,1-0.2,1.2-0.4V14c0,0.7,0.6,1.6,1.4,1.6h6.2c0.8,0,1.4-0.8,1.4-1.6v-0.9c0,0,0.5,0.4,1.4,0.4
	c0.3,0,0.6-0.1,0.8-0.2c0.5-0.3,0.8-0.7,0.8-1.1C15.6,11.9,14.3,7.4,14.2,7.1z M11.1,1.2c0.2,0,0.4,0.2,0.4,0.4
	c0,0.2-0.2,0.4-0.4,0.4c-0.2,0-0.4-0.2-0.4-0.4C10.7,1.4,10.8,1.2,11.1,1.2z M4.5,4.1c0-1,0.9-1.7,2-1.7H8l0,0v1.3c0,0,0,0,0,0
	C7.8,3.7,7.7,3.8,7.7,4v1c0,0.2,0.2,0.4,0.4,0.4c0.2,0,0.4-0.2,0.4-0.4V4c0-0.2-0.1-0.3-0.3-0.3c0,0,0,0,0,0V2.4l0,0h1.3
	c1.1,0,2,0.8,2,1.7v2.3c-0.1,0.1-0.2,0.1-0.4,0.1H9.9v0c0-0.1-0.1-0.2-0.3-0.2h-3c-0.1,0-0.3,0.1-0.3,0.2v0H5.1
	C5,6.6,4.5,6.5,4.5,6.3V4.1z M11.1,8.8c0,0.2-0.2,0.4-0.5,0.4c-0.3,0-0.5-0.2-0.5-0.4c0-0.2,0.2-0.4,0.5-0.4
	C10.9,8.4,11.1,8.6,11.1,8.8z M4.1,10C4,10,3.9,9.9,3.9,9.8V9.2H3.2C3,9.2,2.9,9.1,2.9,9V8.6c0-0.1,0.1-0.2,0.2-0.2h0.7V7.8
	c0-0.1,0.1-0.2,0.2-0.2h0.5c0.1,0,0.2,0.1,0.2,0.2v0.6h0.7c0.1,0,0.2,0.1,0.2,0.2V9c0,0.1-0.1,0.2-0.2,0.2H4.8v0.6
	c0,0.1-0.1,0.2-0.2,0.2H4.1z M9.8,14.4H6c-0.1,0-0.2-0.1-0.2-0.2s0.1-0.2,0.2-0.2h3.7c0.1,0,0.2,0.1,0.2,0.2S9.9,14.4,9.8,14.4z
	 M9.5,12.9H6.5c-1,0-2.2-0.5-1.9-1.8c0-0.1,0.1-0.1,0.2-0.2c0,0,0,0,0,0c0,0,0,0,0,0c0.4,0.2,0.9,0.3,1.3,0.2c0.1,0,0.3-0.1,0.4-0.2
	c0,0,0.1,0,0.1,0c0.2,0,0.5,0,0.9,0v0h0v0c0.1,0,0.2,0,0.4,0c0.2,0,0.4,0,0.4,0v0h0v0c0.4,0,0.8,0,0.9,0c0,0,0.1,0,0.1,0
	c0.5,0.3,1,0.4,1.5,0.1c0-0.1,0.2-0.1,0.2-0.1c0,0,0,0,0,0c0.1,0,0.1,0.2,0.1,0.2C11.5,12.1,10.6,12.9,9.5,12.9z M11.7,10.2
	c-0.3,0-0.5-0.2-0.5-0.4c0-0.2,0.2-0.4,0.5-0.4s0.5,0.2,0.5,0.4C12.2,10,12,10.2,11.7,10.2z M11.7,8.3c-0.3,0-0.5-0.2-0.5-0.4
	c0-0.2,0.2-0.4,0.5-0.4s0.5,0.2,0.5,0.4C12.2,8.1,12,8.3,11.7,8.3z M12.8,9.2c-0.3,0-0.5-0.2-0.5-0.4c0-0.2,0.2-0.4,0.5-0.4
	c0.3,0,0.5,0.2,0.5,0.4C13.3,9.1,13.1,9.2,12.8,9.2z"/>
</svg>
